<svg width="26" height="26" viewBox="0 0 26 26" fill="none" xmlns="http://www.w3.org/2000/svg">
<path d="M5.43822 15.8562C4.70162 14.8993 4.33331 14.4208 4.33331 13C4.33331 11.5792 4.70162 11.1007 5.43822 10.1437C6.90902 8.23293 9.37568 6.06665 13 6.06665C16.6243 6.06665 19.0909 8.23293 20.5617 10.1437C21.2983 11.1007 21.6666 11.5792 21.6666 13C21.6666 14.4208 21.2983 14.8993 20.5617 15.8562C19.0909 17.767 16.6243 19.9333 13 19.9333C9.37568 19.9333 6.90902 17.767 5.43822 15.8562Z" stroke="#1C274C" stroke-width="1.5"/>
<path d="M15.6 13C15.6 14.436 14.436 15.6 13 15.6C11.5641 15.6 10.4 14.436 10.4 13C10.4 11.5641 11.5641 10.4 13 10.4C14.436 10.4 15.6 11.5641 15.6 13Z" stroke="#1C274C" stroke-width="1.5"/>
</svg>
