<svg width="20" height="20" viewBox="0 0 20 20" fill="none" xmlns="http://www.w3.org/2000/svg">
<path d="M4.02261 6.37125C3.85944 5.99053 3.41853 5.81416 3.03781 5.97733C2.65709 6.14049 2.48073 6.5814 2.64389 6.96213L3.33325 6.66669L4.02261 6.37125ZM12.3914 10.8858L12.1167 10.1879L12.1167 10.1879L12.3914 10.8858ZM8.2371 11.2949C8.463 10.9477 8.36469 10.4831 8.0175 10.2572C7.67031 10.0313 7.20573 10.1296 6.97982 10.4768L7.60846 10.8858L8.2371 11.2949ZM6.03795 11.9243C5.81204 12.2715 5.91036 12.7361 6.25755 12.962C6.60473 13.1879 7.06932 13.0896 7.29522 12.7424L6.66659 12.3334L6.03795 11.9243ZM17.3559 6.96213C17.5191 6.5814 17.3427 6.14049 16.962 5.97733C16.5813 5.81416 16.1404 5.99053 15.9772 6.37125L16.6666 6.66669L17.3559 6.96213ZM14.6666 9.41925L14.1533 8.8724L14.1533 8.8724L14.6666 9.41925ZM15.1363 10.9496C15.4291 11.2425 15.904 11.2425 16.1969 10.9496C16.4898 10.6567 16.4898 10.1818 16.1969 9.88892L15.6666 10.4192L15.1363 10.9496ZM9.24992 13C9.24992 13.4142 9.5857 13.75 9.99992 13.75C10.4141 13.75 10.7499 13.4142 10.7499 13H9.99992H9.24992ZM12.7046 12.7424C12.9305 13.0896 13.3951 13.1879 13.7423 12.962C14.0895 12.7361 14.1878 12.2715 13.9619 11.9243L13.3333 12.3334L12.7046 12.7424ZM5.86358 9.94958C6.15648 9.65668 6.15648 9.18181 5.86358 8.88892C5.57069 8.59602 5.09581 8.59602 4.80292 8.88892L5.33325 9.41925L5.86358 9.94958ZM3.80292 9.88892C3.51003 10.1818 3.51003 10.6567 3.80292 10.9496C4.09582 11.2425 4.57069 11.2425 4.86358 10.9496L4.33325 10.4192L3.80292 9.88892ZM9.99992 11.3334V10.5834C7.94269 10.5834 6.46125 9.56129 5.46618 8.48968C4.96887 7.95412 4.60358 7.41619 4.36314 7.01224C4.24334 6.81098 4.1557 6.64494 4.09912 6.5318C4.07087 6.47528 4.05045 6.43214 4.03773 6.4046C4.03137 6.39083 4.02694 6.38098 4.02443 6.37532C4.02317 6.3725 4.02239 6.37072 4.02209 6.37003C4.02194 6.36968 4.0219 6.36961 4.02199 6.36981C4.02204 6.36991 4.02211 6.37008 4.02221 6.37032C4.02226 6.37044 4.02236 6.37067 4.02239 6.37073C4.0225 6.37098 4.02261 6.37125 3.33325 6.66669C2.64389 6.96213 2.64402 6.96243 2.64416 6.96275C2.64422 6.96288 2.64436 6.96322 2.64447 6.96348C2.6447 6.964 2.64496 6.9646 2.64524 6.96526C2.64582 6.9666 2.64652 6.96821 2.64735 6.97011C2.64901 6.97391 2.65117 6.97882 2.65384 6.98482C2.65918 6.99683 2.66655 7.01318 2.67598 7.0336C2.69483 7.07441 2.72194 7.13153 2.75748 7.20262C2.82852 7.34468 2.93358 7.54323 3.0742 7.77947C3.35459 8.25052 3.78097 8.87926 4.36699 9.51036C5.53859 10.7721 7.39048 12.0834 9.99992 12.0834V11.3334ZM12.3914 10.8858L12.1167 10.1879C11.4976 10.4316 10.795 10.5834 9.99992 10.5834V11.3334V12.0834C10.9915 12.0834 11.88 11.8931 12.6661 11.5837L12.3914 10.8858ZM7.60846 10.8858L6.97982 10.4768L6.03795 11.9243L6.66659 12.3334L7.29522 12.7424L8.2371 11.2949L7.60846 10.8858ZM16.6666 6.66669C15.9772 6.37125 15.9773 6.37109 15.9774 6.37095C15.9774 6.3709 15.9774 6.37076 15.9775 6.37068C15.9775 6.37051 15.9776 6.37036 15.9777 6.37024C15.9778 6.36999 15.9778 6.36982 15.9779 6.36975C15.9779 6.3696 15.9779 6.36979 15.9776 6.37032C15.9772 6.37139 15.9761 6.37382 15.9744 6.37755C15.9711 6.38501 15.9653 6.3977 15.9572 6.41521C15.9408 6.45026 15.9148 6.50452 15.879 6.57489C15.8071 6.71578 15.6962 6.92016 15.5447 7.16328C15.2404 7.65167 14.7797 8.28441 14.1533 8.8724L14.6666 9.41925L15.1799 9.96609C15.9258 9.26593 16.4652 8.52239 16.8178 7.95654C16.9947 7.67254 17.1265 7.43031 17.2152 7.25637C17.2596 7.16932 17.2933 7.09911 17.3167 7.04904C17.3284 7.024 17.3375 7.00396 17.344 6.98935C17.3472 6.98204 17.3499 6.97608 17.3519 6.97153C17.3529 6.96925 17.3537 6.96733 17.3544 6.96576C17.3547 6.96497 17.355 6.96428 17.3553 6.96367C17.3554 6.96337 17.3555 6.96309 17.3556 6.96283C17.3557 6.9627 17.3558 6.96253 17.3558 6.96246C17.3559 6.96229 17.3559 6.96213 16.6666 6.66669ZM14.6666 9.41925L14.1533 8.8724C13.5986 9.39306 12.9222 9.87086 12.1167 10.1879L12.3914 10.8858L12.6661 11.5837C13.6838 11.1831 14.5175 10.5878 15.1799 9.96609L14.6666 9.41925ZM14.6666 9.41925L14.1363 9.94958L15.1363 10.9496L15.6666 10.4192L16.1969 9.88892L15.1969 8.88892L14.6666 9.41925ZM9.99992 11.3334H9.24992V13H9.99992H10.7499V11.3334H9.99992ZM12.3914 10.8858L11.7627 11.2949L12.7046 12.7424L13.3333 12.3334L13.9619 11.9243L13.02 10.4768L12.3914 10.8858ZM5.33325 9.41925L4.80292 8.88892L3.80292 9.88892L4.33325 10.4192L4.86358 10.9496L5.86358 9.94958L5.33325 9.41925Z" fill="#484848"/>
</svg>
